# xmcd CD database file
#
# Track frame offsets:
#	180
#	18640
#	36828
#	56315
#
# Disc length: 982 seconds
#
# Revision: 0
# Processed by: cddbd v1.5.1PL0 Copyright (c) Steve Scherf et al.
# Submitted via: CDex 1.51
#
DISCID=2a03d404
DTITLE=Mardi-Gras-Brass-Band - Movement
DYEAR=1993
DGENRE=Jazz
TTITLE0=Mardi Gras Movement
TTITLE1=Teenage Inspiration
TTITLE2=Mardi Gras Banda
TTITLE3=M.G. Ambassador
EXTD=YEAR: 1993
EXTT0=
EXTT1=
EXTT2=
EXTT3=
PLAYORDER=
